<svg width="572" height="601" xmlns="http://www.w3.org/2000/svg" xmlns:xlink="http://www.w3.org/1999/xlink">
  <defs>
    <path id="a" d="M.14.192h44.877v89.582H.14z"/>
    <path id="c" d="M.28.192h44.877v89.582H.28z"/>
    <path id="e" d="M.006.192h44.877v89.582H.006z"/>
    <path id="g" d="M.145.192h44.878v89.582H.145z"/>
    <path id="i" d="M.285.192h46.112v89.582H.285z"/>
    <path id="k" d="M.243.192H45.12v89.582H.243z"/>
    <path id="m" d="M.068.192h46.111v89.582H.068z"/>
    <path id="o" d="M.197.112h14.697v14.781H.197z"/>
    <path id="q" d="M.413.192H48.32v89.582H.413z"/>
    <path id="s" d="M.265.192h44.878v89.582H.265z"/>
    <path id="u" d="M0 .093h44.877v53.689H0z"/>
    <path id="w" d="M0 .192h44.878v42.147H0z"/>
    <path d="M6.681.414C3.039.414.058 3.397.058 7.044v456.8c0 3.088.485 5.24 4.084 7.707l31.043 21.963c3.577 2.486 5.381 3.315 10.349-.415l26.906-19.06c4.721-3.624 5.854-6.682 5.854-10.936V7.043c0-3.646-2.98-6.629-6.624-6.629H6.681z" id="y"/>
    <path d="M6.771.414C3.047.414 0 3.464 0 7.192v293.683c0 1.666 2.102 2.692 3.475 3.595l68.137 46.086c2.603 2.084 6.623.582 6.623-3.729V7.192c0-3.728-3.047-6.778-6.77-6.778H6.77z" id="z"/>
    <path d="M375.828.414c-3.606 0-6.556 2.953-6.556 6.563v422.724c0 3.639 4.105 6.63 8.658 3.73 3.036-1.934 24.837-16.714 65.403-44.338 1.245-.844 4.175-2.486 4.175-7.045V6.978c0-3.61-2.951-6.564-6.557-6.564h-65.123z" id="A"/>
    <path d="M129.498.414c-3.606 0-6.557 2.954-6.557 6.564V383.95c0 1.505.746 2.912 1.99 3.756l69.172 46.913c3.009 2.042 7.073-.116 7.073-3.755V6.977c0-3.61-2.95-6.563-6.556-6.563h-65.122z" id="B"/>
  </defs>
  <g fill="none" fill-rule="evenodd">
    <g transform="translate(50.984 .222)">
      <mask id="b" fill="#fff">
        <use xlink:href="#a"/>
      </mask>
      <path d="M42.774.192a2.248 2.248 0 0 1 2.243 2.24v71.217c0 10.526-5.61 16.125-16.155 16.125H16.296C5.749 89.774.14 84.174.14 73.649V2.43C.14 1.2 1.15.191 2.384.191h10.77a2.248 2.248 0 0 1 2.244 2.24v68.083c0 3.023 1.571 4.479 4.488 4.479h5.834c2.917 0 4.488-1.456 4.488-4.48V2.432c0-1.232 1.01-2.24 2.244-2.24h10.322z" fill="#192B5B" mask="url(#b)"/>
    </g>
    <g transform="translate(102.797 .222)">
      <mask id="d" fill="#fff">
        <use xlink:href="#c"/>
      </mask>
      <path d="M25.411 44.983c3.03 0 4.488-1.68 4.488-4.48V19.453c0-2.912-1.458-4.48-4.488-4.48h-9.873v30.01h9.873zm-25.13-43C.28.863.952.192 2.074.192H29c10.547 0 16.156 5.599 16.156 16.124V43.64c0 10.414-5.61 16.125-16.156 16.125H15.538v28.218c0 1.12-.56 1.792-1.795 1.792H2.075c-1.122 0-1.795-.672-1.795-1.792V1.983z" fill="#192B5B" mask="url(#d)"/>
    </g>
    <g transform="translate(153.366 .222)">
      <mask id="f" fill="#fff">
        <use xlink:href="#e"/>
      </mask>
      <path d="M25.137 44.983c3.029 0 4.487-1.68 4.487-4.48V19.453c0-2.912-1.458-4.48-4.487-4.48h-9.874v30.01h9.874zm-25.131-43C.006.863.678.192 1.8.192h26.927c10.546 0 16.156 5.599 16.156 16.124V43.64c0 10.414-5.61 16.125-16.156 16.125H15.263v28.218c0 1.12-.56 1.792-1.794 1.792H1.8c-1.122 0-1.794-.672-1.794-1.792V1.983z" fill="#192B5B" mask="url(#f)"/>
    </g>
    <g transform="translate(203.935 .222)">
      <mask id="h" fill="#fff">
        <use xlink:href="#g"/>
      </mask>
      <path d="M26.062 75.329c2.917 0 4.488-1.456 4.488-4.48V19.117c0-2.912-1.571-4.48-4.488-4.48h-6.507c-2.917 0-4.488 1.568-4.488 4.48V70.85c0 3.023 1.571 4.479 4.488 4.479h6.507zM.145 16.316C.145 5.791 5.755.192 16.301.192h12.566c10.546 0 16.156 5.599 16.156 16.124V73.65c0 10.526-5.61 16.125-16.156 16.125H16.301c-10.546 0-16.156-5.6-16.156-16.125V16.316z" fill="#192B5B" mask="url(#h)"/>
    </g>
    <g transform="translate(254.505 .222)">
      <mask id="j" fill="#fff">
        <use xlink:href="#i"/>
      </mask>
      <path d="M26.65 44.983c2.918 0 4.489-1.568 4.489-4.48V19.453c0-2.912-1.571-4.48-4.488-4.48H15.543v30.01h11.108zm19.747-1.344c0 7.502-2.805 12.43-8.19 14.781l7.741 29.338c.337 1.344-.336 2.016-1.57 2.016H32.708c-1.122 0-1.683-.56-1.907-1.568l-7.517-28.442h-7.742v28.218c0 1.12-.672 1.792-1.794 1.792H2.08c-1.122 0-1.795-.672-1.795-1.792V1.983C.285.863.958.192 2.08.192h28.16c10.547 0 16.157 5.599 16.157 16.124V43.64z" fill="#192B5B" mask="url(#j)"/>
    </g>
    <g transform="translate(306.732 .222)">
      <mask id="l" fill="#fff">
        <use xlink:href="#k"/>
      </mask>
      <path d="M43.325.192c1.234 0 1.795.671 1.795 1.79v11.2c0 1.119-.56 1.79-1.795 1.79H30.311v73.01c0 1.232-.56 1.792-1.795 1.792H16.848c-1.122 0-1.795-.56-1.795-1.792v-73.01H2.038c-1.122 0-1.795-.671-1.795-1.79v-11.2C.243.864.916.193 2.038.193h41.287z" fill="#192B5B" mask="url(#l)"/>
    </g>
    <path d="M401.156 13.403c0 1.12-.449 1.904-1.795 1.904h-28.048v22.396h21.429c1.122 0 1.795.671 1.795 1.903v11.086c0 1.232-.673 1.903-1.795 1.903h-21.43v22.62h28.05c1.345 0 1.794.56 1.794 1.791v11.198c0 1.12-.449 1.792-1.795 1.792h-41.287c-1.01 0-1.683-.672-1.683-1.792V2.205c0-1.12.673-1.791 1.683-1.791h41.287c1.346 0 1.795.672 1.795 1.791v11.198z" fill="#192B5B"/>
    <g transform="translate(406.213 .222)">
      <mask id="n" fill="#fff">
        <use xlink:href="#m"/>
      </mask>
      <path d="M26.433 44.983c2.917 0 4.488-1.568 4.488-4.48V19.453c0-2.912-1.57-4.48-4.488-4.48H15.326v30.01h11.107zm19.746-1.344c0 7.502-2.804 12.43-8.19 14.781l7.741 29.338c.337 1.344-.336 2.016-1.57 2.016H32.49c-1.122 0-1.683-.56-1.907-1.568l-7.517-28.442h-7.741v28.218c0 1.12-.673 1.792-1.795 1.792H1.862c-1.122 0-1.794-.672-1.794-1.792V1.983C.068.863.74.192 1.862.192h28.161c10.547 0 16.156 5.599 16.156 16.124V43.64z" fill="#192B5B" mask="url(#n)"/>
    </g>
    <g transform="translate(453.466 75.103)">
      <mask id="p" fill="#fff">
        <use xlink:href="#o"/>
      </mask>
      <path d="M.197 2.352C.197.896.982.112 2.44.112h10.21c1.459 0 2.244.784 2.244 2.24v10.302c0 1.455-.785 2.24-2.244 2.24H2.44c-1.458 0-2.243-.785-2.243-2.24V2.352z" fill="#192B5B" mask="url(#p)"/>
    </g>
    <g transform="translate(472.533 .222)">
      <mask id="r" fill="#fff">
        <use xlink:href="#q"/>
      </mask>
      <path d="M46.525.192c1.122 0 1.795.671 1.795 1.79v86c0 1.12-.673 1.792-1.795 1.792H35.417c-1.009 0-1.683-.448-2.02-1.456L16.233 40.504h-.56v47.478c0 1.12-.562 1.792-1.796 1.792H2.208c-1.122 0-1.795-.672-1.795-1.792v-86c0-1.119.673-1.79 1.795-1.79h11.107c1.01 0 1.683.447 2.02 1.455l17.053 47.59h.673V1.984c0-1.12.561-1.791 1.796-1.791h11.668z" fill="#192B5B" mask="url(#r)"/>
    </g>
    <g transform="translate(526.004 .222)">
      <mask id="t" fill="#fff">
        <use xlink:href="#s"/>
      </mask>
      <path d="M26.182 75.329c2.917 0 4.488-1.456 4.488-4.48V19.117c0-2.912-1.57-4.48-4.488-4.48h-6.507c-2.917 0-4.488 1.568-4.488 4.48V70.85c0 3.023 1.571 4.479 4.488 4.479h6.507zM.265 16.316C.265 5.791 5.875.192 16.421.192h12.566c10.546 0 16.156 5.599 16.156 16.124V73.65c0 10.526-5.61 16.125-16.156 16.125H16.421c-10.546 0-16.156-5.6-16.156-16.125V16.316z" fill="#192B5B" mask="url(#t)"/>
    </g>
    <g transform="translate(0 36.214)">
      <mask id="v" fill="#fff">
        <use xlink:href="#u"/>
      </mask>
      <path d="M41.96 7.647L19.41.267c-.937-.283-2.754-.283-3.677.474L5.835 7.946c-2.232 1.618-2.526 3.016.075 3.895l23.71 7.787v14.893c0 3.024-1.571 4.48-4.489 4.48h-5.385c-2.805 0-4.488-1.456-4.488-4.48V25.9c0-.99-.803-1.792-1.795-1.792H1.795C.673 24.107 0 24.667 0 25.9v11.758c0 10.526 5.722 16.125 16.156 16.125h12.566c8.922 0 16.155-7.22 16.155-16.125V11.79c0-2.128-1.01-3.36-2.916-4.143" fill="#192B5B" mask="url(#v)"/>
    </g>
    <g transform="translate(0 .222)">
      <mask id="x" fill="#fff">
        <use xlink:href="#w"/>
      </mask>
      <path d="M28.853.192H16.156C5.722.192 0 5.79 0 16.316v24.976c0 .785 1.054 1.542 2.32.632 2.685-1.928 7.569-5.401 11.704-8.62a3.198 3.198 0 0 0 1.234-2.525V19.452c0-2.912 1.683-4.48 4.488-4.48h5.386c3.029 0 4.487 1.568 4.487 4.48v8.865c0 .917.745 1.66 1.663 1.66h11.8c1.234 0 1.796-.671 1.796-1.79V16.184c0-8.833-7.175-15.993-16.025-15.993" fill="#192B5B" mask="url(#x)"/>
    </g>
    <g transform="translate(0 105)">
      <use fill="#1A2A5B" xlink:href="#y" transform="translate(245.882)"/>
      <path d="M570 296.688l-.035-289.43c0-3.764-3.077-6.844-6.837-6.844h-64.56c-3.761 0-6.838 3.08-6.838 6.845V347.24c0 4.144 3.229 7.01 7.486 4.144a51750.13 51750.13 0 0 1 67.886-45.58c.838-.569 2.898-2.072 2.898-4.559v-4.558z" fill="#1A2A5B"/>
      <use fill="#1A2A5B" xlink:href="#z"/>
      <use fill="#1A2A5B" xlink:href="#A"/>
      <use fill="#1A2A5B" xlink:href="#B"/>
    </g>
  </g>
</svg>
